<svg t="1784455492184" class="icon" viewBox="0 0 1024 1024" version="1.1" xmlns="http://www.w3.org/2000/svg" p-id="5011" width="256" height="256"><path d="M522.218667 85.333333a32 32 0 0 0-22.186667 9.386667l-85.333333 85.333333a32 32 0 1 0 45.269333 45.226667L490.666667 194.602667V309.333333a32 32 0 1 0 64 0V194.581333l30.72 30.72a32 32 0 1 0 45.226666-45.269333l-85.333333-85.333333A32 32 0 0 0 522.24 85.333333z m277.333333 128a32 32 0 0 0-22.186667 9.386667l-85.333333 85.333333a32 32 0 1 0 45.269333 45.226667L768 322.602667V437.333333a32 32 0 1 0 64 0v-114.752l30.72 30.72a32 32 0 1 0 45.226667-45.269333l-85.333334-85.333333A32 32 0 0 0 799.573333 213.333333z m-554.666667 128a32 32 0 0 0-22.186666 9.386667l-85.333334 85.333333a32 32 0 1 0 45.269334 45.226667L213.333333 450.602667V565.333333a32 32 0 1 0 64 0v-114.752l30.72 30.72a32 32 0 1 0 45.226667-45.269333l-85.333333-85.333333A32 32 0 0 0 244.906667 341.333333zM522.666667 384c-52.650667 0-96 43.349333-96 96v362.666667c0 52.650667 43.349333 96 96 96s96-43.349333 96-96v-362.666667c0-52.650667-43.349333-96-96-96z m0 64c18.048 0 32 13.952 32 32v362.666667c0 18.048-13.952 32-32 32s-32-13.952-32-32v-362.666667c0-18.048 13.952-32 32-32z m277.333333 64c-52.650667 0-96 43.349333-96 96v234.666667c0 52.650667 43.349333 96 96 96s96-43.349333 96-96v-234.666667c0-52.650667-43.349333-96-96-96z m0 64c18.048 0 32 13.952 32 32v234.666667c0 18.048-13.952 32-32 32s-32-13.952-32-32v-234.666667c0-18.048 13.952-32 32-32z m-554.666667 64C192.682667 640 149.333333 683.349333 149.333333 736v106.666667c0 52.650667 43.349333 96 96 96s96-43.349333 96-96v-106.666667c0-52.650667-43.349333-96-96-96z m0 64c18.048 0 32 13.952 32 32v106.666667c0 18.048-13.952 32-32 32s-32-13.952-32-32v-106.666667c0-18.048 13.952-32 32-32z" p-id="5012"></path></svg>