<svg t="1784047587499" class="icon" viewBox="0 0 1024 1024" version="1.1" xmlns="http://www.w3.org/2000/svg" p-id="5153" width="48" height="48"><path d="M775.143619 560.761905v37.059047H877.714286v178.712381h-102.570667v79.238096H712.411429v-79.238096H609.52381v-178.712381h102.887619V560.761905h62.73219zM804.571429 146.285714a73.142857 73.142857 0 0 1 73.142857 73.142857v292.571429h-73.142857V219.428571H170.666667v438.857143l155.062857-0.048762 0.024381 76.507429L431.323429 658.285714 560.761905 658.236952v73.142858l-105.71581 0.02438-163.742476 118.613334a24.380952 24.380952 0 0 1-38.692571-19.748572V731.428571L170.666667 731.428571a73.142857 73.142857 0 0 1-73.142857-73.142857V219.428571a73.142857 73.142857 0 0 1 73.142857-73.142857h633.904762z m-93.184 494.933334h-42.812953v80.457142h42.812953v-80.457142z m107.105523 0H776.045714v80.457142h42.471619v-80.457142zM521.020952 292.571429L585.142857 530.895238h-65.340952l-11.093334-46.470095h-66.852571l-11.093333 46.470095H365.714286L429.568 292.571429h91.428571z m-45.275428 51.858285h-0.585143l-21.894095 92.038096h44.080762l-21.601524-92.038096z" p-id="5154"></path></svg>